# xmcd
# 
# Track frame offsets:
#     150
#     20887
#     35129
#     56286
# 
# Disc length: 970
# 
# Revision: 1
# Processed by: cddbd v1.5.2PL0 Copyright (c) Steve Scherf et al.
# Submitted via: BonkEnc v1.0.6
# 
DISCID=3103c804
DTITLE=ON/OFF - ふたつの鼓動と赤い罪
DYEAR=0
DGENRE=ポップ
TTITLE0=ふたつの鼓動と赤い罪 ～ヴァンパイア騎士 Ver.～
TTITLE1=シグナル
TTITLE2=朝焼け
TTITLE3=サガシモノ
EXTD=
EXTT0=
EXTT1=
EXTT2=
EXTT3=
PLAYORDER=
